
<svg width="800" height="600" viewBox="0 0 800 600" xmlns="http://www.w3.org/2000/svg">
  <rect width="800" height="600" fill="#EEF2FF"/>
  <circle cx="400" cy="300" r="180" fill="#C7D2FE"/>
  <g transform="translate(260, 180)">
    <!-- Stylized group of people -->
    <circle cx="70" cy="70" r="45" fill="#6366F1"/>
    <circle cx="160" cy="120" r="45" fill="#818CF8"/>
    <circle cx="220" cy="60" r="45" fill="#4F46E5"/>
    <circle cx="140" cy="20" r="45" fill="#A5B4FC"/>
    
    <!-- Book/education icon -->
    <rect x="120" y="220" width="80" height="60" rx="5" fill="#4F46E5"/>
    <rect x="120" y="215" width="80" height="10" rx="5" fill="#6366F1"/>
    <rect x="130" y="230" width="60" height="5" fill="white" opacity="0.5"/>
    <rect x="130" y="240" width="40" height="5" fill="white" opacity="0.5"/>
    <rect x="130" y="250" width="50" height="5" fill="white" opacity="0.5"/>
    <rect x="130" y="260" width="30" height="5" fill="white" opacity="0.5"/>
    
    <!-- Calendar icon -->
    <rect x="30" y="220" width="60" height="60" rx="5" fill="#4F46E5"/>
    <rect x="40" y="230" width="40" height="40" rx="2" fill="white" opacity="0.8"/>
    <rect x="45" y="235" width="30" height="5" fill="#4F46E5"/>
    <rect x="45" y="245" width="30" height="5" fill="#4F46E5" opacity="0.6"/>
    <rect x="45" y="255" width="20" height="5" fill="#4F46E5" opacity="0.6"/>
  </g>
  
  <!-- Decorative elements -->
  <circle cx="700" cy="100" r="30" fill="#6366F1" opacity="0.3"/>
  <circle cx="650" cy="150" r="20" fill="#6366F1" opacity="0.3"/>
  <circle cx="720" cy="180" r="15" fill="#6366F1" opacity="0.3"/>
  
  <circle cx="100" cy="500" r="30" fill="#6366F1" opacity="0.3"/>
  <circle cx="150" cy="450" r="20" fill="#6366F1" opacity="0.3"/>
  <circle cx="80" cy="420" r="15" fill="#6366F1" opacity="0.3"/>
</svg>
